:SAMPLES-PER-SECOND 30
:FULLY-SPECIFIED
:DEGREES
98
root  -14.1578 38.9727 26.9891 -168.807 -78.5255 159.091
RightUpLeg  -18.4123 -10.4676 -6.42122
RightLeg  51.2247 1.81679 2.1057
RightFoot  -2.1117 -0.663882 8.01701
RightToes  -6.98493e-010 0 -3.6325e-017
Spine  10.6694 -0.273054 -3.26839
Spine1  4.40554 -0.0105833 -5.02234
HEad  -6.17663 -1.89157 -0.525953
LeftShoulder1  -0.0693188 3.68998 -31.2667
LeftArm  -4.86979 1.37665 -38.9875
LeftForeArm  25.6585 -9.82596 -7.71283
LeftHand  -0.0167199 5.86502 3.01589
RightShoulder  -0.701192 -5.51038 28.2538
RightArm  17.3245 -11.7658 48.3555
RightForeArm  16.4892 11.8929 7.01646
RightHand  -0.17344 1.17768 -3.19276
LeftUpLeg  6.64427 7.24793 1.34733
LeftLeg  19.1699 -0.638722 0.364148
LeftFoot  -16.227 0.0113875 -2.09003
LeftToes  7.91257e-010 -1.64976e-010 -3.02228e-011
99
root  -15.1784 39.0074 26.9542 -171.738 -78.1643 162.722
RightUpLeg  -20.2828 -11.4566 -4.32753
RightLeg  41.6836 1.20597 0.873846
RightFoot  -3.10117 -0.57481 7.67754
RightToes  -6.98493e-010 0 -3.6325e-017
Spine  10.5746 -0.666473 -3.83814
Spine1  4.12369 -0.595627 -3.76473
HEad  -6.89628 -1.12672 -1.34213
LeftShoulder1  -0.0446938 3.62058 -31.4762
LeftArm  -4.09526 -0.858867 -38.4134
LeftForeArm  23.1555 -11.0073 -7.59336
LeftHand  -0.039805 4.79821 3.80104
RightShoulder  -0.634129 -5.33646 27.8616
RightArm  16.9398 -13.2692 48.0063
RightForeArm  16.8099 11.4952 7.04713
RightHand  -0.157567 1.39661 -2.83151
LeftUpLeg  8.55524 8.05287 2.0924
LeftLeg  17.6246 -1.02159 0.273676
LeftFoot  -17.1192 0.00643879 -1.96177
LeftToes  7.91257e-010 -1.64976e-010 -3.02228e-011
100
root  -16.2316 39.0222 26.903 -173.213 -78.1667 164.75
RightUpLeg  -20.6691 -12.2827 -2.89896
RightLeg  29.8973 0.351541 -0.025984
RightFoot  -3.28774 -0.54677 7.43817
RightToes  -6.98493e-010 0 -3.6325e-017
Spine  10.7491 -1.36835 -3.61042
Spine1  3.72999 -1.15883 -3.71138
HEad  -7.35276 -0.5419 -1.56564
LeftShoulder1  0.0646511 3.32799 -30.6199
LeftArm  -3.9831 -2.33702 -38.4505
LeftForeArm  22.4509 -12.264 -7.08875
LeftHand  -0.0846237 3.2746 3.91291
RightShoulder  -0.726781 -5.54956 28.8709
RightArm  16.8861 -14.3117 46.6839
RightForeArm  16.3375 11.3188 7.03554
RightHand  -0.132666 1.33324 -2.42574
LeftUpLeg  10.7291 8.54469 2.67293
LeftLeg  15.7832 -1.46645 0.0951421
LeftFoot  -17.835 0.00138037 -1.85707
LeftToes  7.91257e-010 -1.64976e-010 -3.02228e-011
101
root  -17.3337 38.9522 26.8006 -172.39 -78.1812 164.484
RightUpLeg  -20.357 -11.4068 -2.62033
RightLeg  17.8082 -1.02088 -0.385771
RightFoot  -3.47675 -0.497642 6.8819
RightToes  -6.98493e-010 0 -3.6325e-017
Spine  10.6593 -1.70706 -4.62266
Spine1  3.9811 -1.86766 -1.77179
HEad  -8.07041 0.178521 -2.68233
LeftShoulder1  -0.0414395 3.61442 -31.4118
LeftArm  -2.01883 -4.76862 -37.648
LeftForeArm  20.114 -13.5684 -7.1005
LeftHand  -0.070833 4.13228 4.75907
RightShoulder  -0.685334 -5.4725 28.1323
RightArm  15.6453 -15.7226 46.3192
RightForeArm  15.5198 11.428 6.67914
RightHand  -0.152332 1.51237 -2.70091
LeftUpLeg  12.9007 8.88651 2.85801
LeftLeg  14.0074 -1.84711 -0.141747
LeftFoot  -18.6644 -0.0053216 -1.83215
LeftToes  7.91257e-010 -1.64976e-010 -3.02228e-011
102
root  -18.4843 38.774 26.6376 -169.761 -78.4865 162.392
RightUpLeg  -20.3484 -9.14972 -3.76314
RightLeg  8.56289 -2.33311 0.308138
RightFoot  -3.78602 -0.437481 6.23039
RightToes  -6.98493e-010 0 -3.6325e-017
Spine  10.5686 -1.9673 -5.21685
Spine1  4.11518 -2.33177 -0.740053
HEad  -8.56476 -0.257594 -2.95468
LeftShoulder1  -0.0249256 3.56838 -31.8296
LeftArm  -2.70331 -7.36498 -37.6114
LeftForeArm  21.037 -13.4183 -7.021
LeftHand  -0.102092 3.34157 4.90254
RightShoulder  -0.690255 -5.48645 28.1201
RightArm  14.5142 -17.2055 45.5057
RightForeArm  14.9262 11.6017 6.28323
RightHand  -0.178785 1.56046 -3.12533
LeftUpLeg  14.8422 8.95566 2.81507
LeftLeg  12.8305 -2.48805 -0.356545
LeftFoot  -19.7755 -0.0292473 -2.00206
LeftToes  7.91257e-010 -1.64976e-010 -3.02228e-011
103
root  -19.7277 38.481 26.4533 -167.642 -78.4253 160.322
RightUpLeg  -21.0517 -7.49423 -4.82869
RightLeg  4.59195 -0.992025 0.700617
RightFoot  -3.80713 -0.420098 5.98087
RightToes  -6.98493e-010 0 -3.6325e-017
Spine  11.1989 -2.06863 -4.35182
Spine1  3.6442 -2.20103 -1.5232
HEad  -8.50628 -1.18003 -2.91329
LeftShoulder1  0.0967055 3.24589 -31.3747
LeftArm  -3.54507 -8.91832 -38.4869
LeftForeArm  21.6768 -13.6431 -6.71463
LeftHand  -0.0620905 4.273 4.41245
RightShoulder  -0.750526 -5.62119 28.7948
RightArm  13.8639 -18.5567 44.2499
RightForeArm  14.6186 11.6156 5.99601
RightHand  -0.118486 0.485527 -2.4155
LeftUpLeg  17.373 9.22641 2.97554
LeftLeg  12.1114 -3.34905 -0.725335
LeftFoot  -21.3568 -0.0810378 -2.3859
LeftToes  7.91257e-010 -1.64976e-010 -3.02228e-011
104
root  -21.074 38.0771 26.1627 -167.479 -78.5684 160.02
RightUpLeg  -22.1514 -6.99571 -4.83914
RightLeg  5.62668 1.44123 0.380289
RightFoot  -4.02237 -0.397192 5.74215
RightToes  -6.98493e-010 0 -3.6325e-017
Spine  11.7624 -2.14331 -3.84768
Spine1  3.88005 -2.35288 -1.05667
HEad  -9.46057 -0.838851 -3.71301
LeftShoulder1  0.00661133 3.48671 -31.8912
LeftArm  -4.30934 -11.0422 -39.2204
LeftForeArm  20.7764 -13.275 -6.72466
LeftHand  -0.0764834 4.15897 4.75222
RightShoulder  -0.671055 -5.43519 28.057
RightArm  12.7286 -18.6755 44.3213
RightForeArm  15.6556 10.3043 6.01998
RightHand  -0.0974401 0.740874 -1.92979
LeftUpLeg  19.6452 9.21381 3.52215
LeftLeg  12.7689 -4.01507 -0.650956
LeftFoot  -23.4738 -0.158527 -2.81602
LeftToes  7.91257e-010 -1.64976e-010 -3.02228e-011
